name rise35.5848peak51.9257fall54.8793.mot
datacolumns 19
datarows 17
range 20.98324500000000 21.00991400000000
endheader
time	ground_force1_vx	ground_force1_vy	ground_force1_vz	ground_force1_px	ground_force1_py	ground_force1_pz	ground_force2_vx	ground_force2_vy	ground_force2_vz	ground_force2_px	ground_force2_py	ground_force2_pz	ground_torque1_x	ground_torque1_y	ground_torque1_z	ground_torque2_x	ground_torque2_y	ground_torque2_z	
20.98324500000000	-5.67657000000000	42.89502500000000	-8.04782000000000	0.30092600000000	0.00000000000000	0.10228300000000	-50.59175000000000	802.53035999999997	-50.81666500000000	0.10520600000000	0.00000000000000	-0.07043000000000	0.00000000000000	-4.76172000000000	0.00000000000000	0.00000000000000	-17.36681700000000	0.00000000000000	
20.98491800000000	-6.20789500000000	50.24096200000000	-9.04114200000000	0.30539300000000	0.00000000000000	0.10286300000000	-51.47245900000000	800.10277699999995	-50.45453400000000	0.10435400000000	0.00000000000000	-0.07031700000000	0.00000000000000	-5.41139600000000	0.00000000000000	0.00000000000000	-17.33434900000000	0.00000000000000	
20.98657800000000	-6.62448500000000	57.67156400000000	-9.94073000000000	0.30936900000000	0.00000000000000	0.10339600000000	-52.36890200000000	797.52901899999995	-50.06652700000000	0.10349900000000	0.00000000000000	-0.07019900000000	0.00000000000000	-6.01677100000000	0.00000000000000	0.00000000000000	-17.30296600000000	0.00000000000000	
20.98824800000000	-6.90975000000000	65.09098800000000	-10.72530400000000	0.31293400000000	0.00000000000000	0.10389000000000	-53.28009500000000	794.80634599999996	-49.65266600000000	0.10264300000000	0.00000000000000	-0.07007800000000	0.00000000000000	-6.56428000000000	0.00000000000000	0.00000000000000	-17.27263000000000	0.00000000000000	
20.98991700000000	-7.05343500000000	72.42719200000001	-11.38082300000000	0.31615500000000	0.00000000000000	0.10434900000000	-54.20493600000000	791.93200100000001	-49.21302000000000	0.10178600000000	0.00000000000000	-0.06995300000000	0.00000000000000	-7.04463800000000	0.00000000000000	0.00000000000000	-17.24328900000000	0.00000000000000	
20.99158500000000	-7.05154500000000	79.63411800000000	-11.90056400000000	0.31908500000000	0.00000000000000	0.10477900000000	-55.14220200000000	788.90320899999995	-48.74770300000000	0.10092700000000	0.00000000000000	-0.06982500000000	0.00000000000000	-7.45296300000000	0.00000000000000	0.00000000000000	-17.21487100000000	0.00000000000000	
20.99324600000000	-6.90577700000000	86.69137800000000	-12.28459600000000	0.32176700000000	0.00000000000000	0.10518100000000	-56.09055300000000	785.71718599999997	-48.25687800000000	0.10006800000000	0.00000000000000	-0.06969200000000	0.00000000000000	-7.78852700000000	0.00000000000000	0.00000000000000	-17.18728600000000	0.00000000000000	
20.99491800000000	-6.62258100000000	93.60187800000000	-12.53877800000000	0.32423800000000	0.00000000000000	0.10556100000000	-57.04853100000000	782.37114399999996	-47.74075900000000	0.09920900000000	0.00000000000000	-0.06955600000000	0.00000000000000	-8.05419300000000	0.00000000000000	0.00000000000000	-17.16042900000000	0.00000000000000	
20.99658600000000	-6.21200500000000	100.38792500000000	-12.67346300000000	0.32652700000000	0.00000000000000	0.10591900000000	-58.01456100000000	778.86230000000000	-47.19960500000000	0.09835000000000	0.00000000000000	-0.06941600000000	0.00000000000000	-8.25566200000000	0.00000000000000	0.00000000000000	-17.13417100000000	0.00000000000000	
20.99824600000000	-5.68644200000000	107.08641700000000	-12.70205600000000	0.32866000000000	0.00000000000000	0.10625900000000	-58.98695400000000	775.18788300000006	-46.63372600000000	0.09749200000000	0.00000000000000	-0.06927200000000	0.00000000000000	-8.40061000000000	0.00000000000000	0.00000000000000	-17.10837100000000	0.00000000000000	
20.99991500000000	-5.05941200000000	113.74366600000000	-12.63956800000000	0.33065800000000	0.00000000000000	0.10658100000000	-59.96391300000000	771.34514300000001	-46.04348500000000	0.09663600000000	0.00000000000000	-0.06912400000000	0.00000000000000	-8.49781400000000	0.00000000000000	0.00000000000000	-17.08286700000000	0.00000000000000	
21.00158600000000	-4.34446500000000	120.41033899999999	-12.50129600000000	0.33253900000000	0.00000000000000	0.10688900000000	-60.94353100000000	767.33136600000000	-45.42929100000000	0.09578300000000	0.00000000000000	-0.06897200000000	0.00000000000000	-8.55633500000000	0.00000000000000	0.00000000000000	-17.05748000000000	0.00000000000000	
21.00324900000000	-3.55427300000000	127.13690900000000	-12.30170100000000	0.33431700000000	0.00000000000000	0.10718200000000	-61.92379600000000	763.14388099999996	-44.79160500000000	0.09493300000000	0.00000000000000	-0.06881600000000	0.00000000000000	-8.58482300000000	0.00000000000000	0.00000000000000	-17.03201500000000	0.00000000000000	
21.00491300000000	-2.69995100000000	133.96986699999999	-12.05354600000000	0.33600600000000	0.00000000000000	0.10746200000000	-62.90260200000000	758.78007300000002	-44.13094000000000	0.09408700000000	0.00000000000000	-0.06865600000000	0.00000000000000	-8.59096400000000	0.00000000000000	0.00000000000000	-17.00625800000000	0.00000000000000	
21.00658800000000	-1.79062000000000	140.94888200000000	-11.76731000000000	0.33761600000000	0.00000000000000	0.10773000000000	-63.87774600000000	754.23740199999997	-43.44785800000000	0.09324600000000	0.00000000000000	-0.06849300000000	0.00000000000000	-8.58110400000000	0.00000000000000	0.00000000000000	-16.97998100000000	0.00000000000000	
21.00824400000000	-0.83320100000000	148.10492600000001	-11.45088200000000	0.33915700000000	0.00000000000000	0.10798600000000	-64.84693799999999	749.51341500000001	-42.74296900000000	0.09241100000000	0.00000000000000	-0.06832500000000	0.00000000000000	-8.56002900000000	0.00000000000000	0.00000000000000	-16.95294200000000	0.00000000000000	
21.00991400000000	0.16758200000000	155.45936599999999	-11.10949600000000	0.34063600000000	0.00000000000000	0.10823300000000	-65.80780500000000	744.60576200000003	-42.01693400000000	0.09158300000000	0.00000000000000	-0.06815300000000	0.00000000000000	-8.53091200000000	0.00000000000000	0.00000000000000	-16.92488100000000	0.00000000000000	
